<svg id="visual" viewBox="0 0 900 600" width="900" height="600" xmlns="http://www.w3.org/2000/svg" xmlns:xlink="http://www.w3.org/1999/xlink" version="1.1"><rect x="0" y="0" width="900" height="600" fill="#0b090a"></rect><path d="M0 521L21.5 518.5C43 516 86 511 128.8 507.7C171.7 504.3 214.3 502.7 257.2 503.3C300 504 343 507 385.8 510.3C428.7 513.7 471.3 517.3 514.2 517C557 516.7 600 512.3 642.8 510.2C685.7 508 728.3 508 771.2 510.7C814 513.3 857 518.7 878.5 521.3L900 524L900 601L878.5 601C857 601 814 601 771.2 601C728.3 601 685.7 601 642.8 601C600 601 557 601 514.2 601C471.3 601 428.7 601 385.8 601C343 601 300 601 257.2 601C214.3 601 171.7 601 128.8 601C86 601 43 601 21.5 601L0 601Z" fill="#e63946"></path><path d="M0 519L21.5 519.8C43 520.7 86 522.3 128.8 523.8C171.7 525.3 214.3 526.7 257.2 526.3C300 526 343 524 385.8 525.7C428.7 527.3 471.3 532.7 514.2 534.3C557 536 600 534 642.8 535C685.7 536 728.3 540 771.2 541.8C814 543.7 857 543.3 878.5 543.2L900 543L900 601L878.5 601C857 601 814 601 771.2 601C728.3 601 685.7 601 642.8 601C600 601 557 601 514.2 601C471.3 601 428.7 601 385.8 601C343 601 300 601 257.2 601C214.3 601 171.7 601 128.8 601C86 601 43 601 21.5 601L0 601Z" fill="#da313b"></path><path d="M0 553L21.5 551C43 549 86 545 128.8 541.7C171.7 538.3 214.3 535.7 257.2 533.2C300 530.7 343 528.3 385.8 531C428.7 533.7 471.3 541.3 514.2 543C557 544.7 600 540.3 642.8 538.8C685.7 537.3 728.3 538.7 771.2 541C814 543.3 857 546.7 878.5 548.3L900 550L900 601L878.5 601C857 601 814 601 771.2 601C728.3 601 685.7 601 642.8 601C600 601 557 601 514.2 601C471.3 601 428.7 601 385.8 601C343 601 300 601 257.2 601C214.3 601 171.7 601 128.8 601C86 601 43 601 21.5 601L0 601Z" fill="#cd2931"></path><path d="M0 559L21.5 556.5C43 554 86 549 128.8 548.7C171.7 548.3 214.3 552.7 257.2 552.2C300 551.7 343 546.3 385.8 543.2C428.7 540 471.3 539 514.2 539.3C557 539.7 600 541.3 642.8 541.3C685.7 541.3 728.3 539.7 771.2 540.5C814 541.3 857 544.7 878.5 546.3L900 548L900 601L878.5 601C857 601 814 601 771.2 601C728.3 601 685.7 601 642.8 601C600 601 557 601 514.2 601C471.3 601 428.7 601 385.8 601C343 601 300 601 257.2 601C214.3 601 171.7 601 128.8 601C86 601 43 601 21.5 601L0 601Z" fill="#c12127"></path><path d="M0 555L21.5 556.3C43 557.7 86 560.3 128.8 561.2C171.7 562 214.3 561 257.2 559.3C300 557.7 343 555.3 385.8 555.7C428.7 556 471.3 559 514.2 561C557 563 600 564 642.8 565.3C685.7 566.7 728.3 568.3 771.2 566.2C814 564 857 558 878.5 555L900 552L900 601L878.5 601C857 601 814 601 771.2 601C728.3 601 685.7 601 642.8 601C600 601 557 601 514.2 601C471.3 601 428.7 601 385.8 601C343 601 300 601 257.2 601C214.3 601 171.7 601 128.8 601C86 601 43 601 21.5 601L0 601Z" fill="#b5181d"></path><path d="M0 568L21.5 567.3C43 566.7 86 565.3 128.8 567.5C171.7 569.7 214.3 575.3 257.2 575.2C300 575 343 569 385.8 568.8C428.7 568.7 471.3 574.3 514.2 576.5C557 578.7 600 577.3 642.8 575.5C685.7 573.7 728.3 571.3 771.2 572C814 572.7 857 576.3 878.5 578.2L900 580L900 601L878.5 601C857 601 814 601 771.2 601C728.3 601 685.7 601 642.8 601C600 601 557 601 514.2 601C471.3 601 428.7 601 385.8 601C343 601 300 601 257.2 601C214.3 601 171.7 601 128.8 601C86 601 43 601 21.5 601L0 601Z" fill="#a90e13"></path><path d="M0 583L21.5 583.8C43 584.7 86 586.3 128.8 587.5C171.7 588.7 214.3 589.3 257.2 588C300 586.7 343 583.3 385.8 583.3C428.7 583.3 471.3 586.7 514.2 586.8C557 587 600 584 642.8 584.2C685.7 584.3 728.3 587.7 771.2 588.3C814 589 857 587 878.5 586L900 585L900 601L878.5 601C857 601 814 601 771.2 601C728.3 601 685.7 601 642.8 601C600 601 557 601 514.2 601C471.3 601 428.7 601 385.8 601C343 601 300 601 257.2 601C214.3 601 171.7 601 128.8 601C86 601 43 601 21.5 601L0 601Z" fill="#9d0208"></path></svg>